HIERARCHY
ROOT SpineBase
{
  OFFSET 0.000000 0.000000 0.000000
  CHANNELS 6 Xposition Yposition Zposition Zrotation Xrotation Yrotation
  JOINT SpineMid
  {
    OFFSET 0.000000 30.440963 -0.000000
    CHANNELS 3 Zrotation Xrotation Yrotation
    JOINT SpineShoulder
    {
      OFFSET -0.119692 22.530663 -0.850976
      CHANNELS 3 Zrotation Xrotation Yrotation
      JOINT Neck
      {
        OFFSET -0.083456 7.437002 -0.610174
        CHANNELS 3 Zrotation Xrotation Yrotation
        JOINT Head
        {
          OFFSET -2.643220 15.408916 1.622802
          CHANNELS 3 Zrotation Xrotation Yrotation
          End Site
          {
            OFFSET 0 0 0
          }
        }
      }
      JOINT ShoulderLeft
      {
        OFFSET -17.308924 -4.678894 8.528734
        CHANNELS 3 Zrotation Xrotation Yrotation
        JOINT ElbowLeft
        {
          OFFSET -1.930348 -26.630226 -0.694941
          CHANNELS 3 Zrotation Xrotation Yrotation
          JOINT WristLeft
          {
            OFFSET 0.516284 -20.500457 -7.898833
            CHANNELS 3 Zrotation Xrotation Yrotation
            JOINT HandLeft
            {
              OFFSET 2.233132 -5.376025 -1.639341
              CHANNELS 3 Zrotation Xrotation Yrotation
              JOINT HandTipLeft
              {
                OFFSET 1.280699 -9.928788 -2.274002
                CHANNELS 3 Zrotation Xrotation Yrotation
                End Site
                {
                  OFFSET 0 0 0
                }
              }
              JOINT ThumbLeft
              {
                OFFSET -3.926941 -0.514337 -2.636531
                CHANNELS 3 Zrotation Xrotation Yrotation
                End Site
                {
                  OFFSET 0 0 0
                }
              }
            }
          }
        }
      }
      JOINT ShoulderRight
      {
        OFFSET 14.555460 -3.281359 -7.912806
        CHANNELS 3 Zrotation Xrotation Yrotation
        JOINT ElbowRight
        {
          OFFSET 5.631162 -24.441790 -3.161220
          CHANNELS 3 Zrotation Xrotation Yrotation
          JOINT WristRight
          {
            OFFSET -2.080169 -22.072562 -6.552693
            CHANNELS 3 Zrotation Xrotation Yrotation
            JOINT HandRight
            {
              OFFSET -2.125903 -6.500324 -0.436507
              CHANNELS 3 Zrotation Xrotation Yrotation
              JOINT HandTipRight
              {
                OFFSET -0.936531 -8.622386 -1.498045
                CHANNELS 3 Zrotation Xrotation Yrotation
                End Site
                {
                  OFFSET 0 0 0
                }
              }
              JOINT ThumbRight
              {
                OFFSET -3.413121 1.309036 1.061778
                CHANNELS 3 Zrotation Xrotation Yrotation
                End Site
                {
                  OFFSET 0 0 0
                }
              }
            }
          }
        }
      }
    }
  }
  JOINT HipLeft
  {
    OFFSET -7.617799 -0.010564 -0.653513
    CHANNELS 3 Zrotation Xrotation Yrotation
    JOINT KneeLeft
    {
      OFFSET 0.590041 -28.936847 -1.383563
      CHANNELS 3 Zrotation Xrotation Yrotation
      JOINT AnkleLeft
      {
        OFFSET 4.148260 -36.566346 5.817704
        CHANNELS 3 Zrotation Xrotation Yrotation
        JOINT FootLeft
        {
          OFFSET -0.861712 -7.633500 -6.836514
          CHANNELS 3 Zrotation Xrotation Yrotation
          End Site
          {
            OFFSET 0 0 0
          }
        }
      }
    }
  }
  JOINT HipRight
  {
    OFFSET 6.923495 1.089058 -6.602013
    CHANNELS 3 Zrotation Xrotation Yrotation
    JOINT KneeRight
    {
      OFFSET 7.817773 -27.411754 -3.973257
      CHANNELS 3 Zrotation Xrotation Yrotation
      JOINT AnkleRight
      {
        OFFSET 4.362806 -36.960638 11.575268
        CHANNELS 3 Zrotation Xrotation Yrotation
        JOINT FootRight
        {
          OFFSET -1.454813 -8.565854 -5.589914
          CHANNELS 3 Zrotation Xrotation Yrotation
          End Site
          {
            OFFSET 0 0 0
          }
        }
      }
    }
  }
}
MOTION
Frames: 12
Frame Time: 0.033333
38.016904 74.734161 385.241346 -0.000000 -0.000000 22.248309 0.000000 0.000000 -22.248309 -0.000000 0.000000 0.000000 -0.000000 0.000000 0.000000 0.000000 0.000000 0.000000 -0.000000 0.000000 0.000000 -0.000000 0.000000 0.000000 -0.000000 0.000000 0.000000 -0.000000 0.000000 0.000000 0.000000 0.000000 0.000000 0.000000 0.000000 0.000000 -0.000000 0.000000 0.000000 -0.000000 0.000000 0.000000 -0.000000 0.000000 0.000000 -0.000000 0.000000 0.000000 0.000000 0.000000 0.000000 0.000000 0.000000 0.000000 0.000000 0.000000 -22.248309 -0.000000 0.000000 0.000000 -0.000000 0.000000 0.000000 0.000000 0.000000 0.000000 0.000000 0.000000 -22.248309 -0.000000 0.000000 0.000000 -0.000000 0.000000 0.000000 0.000000 0.000000 0.000000
38.008855 74.741644 385.236157 -0.003647 0.021609 22.319964 -0.004832 -0.021375 -22.319965 -0.000000 0.000000 0.000000 -0.000000 0.000000 0.000000 0.000000 0.000000 0.000000 -0.000000 0.000000 0.000000 -0.000000 0.000000 0.000000 0.928627 -0.157034 -0.346114 -0.929562 0.151401 0.348614 0.000000 0.000000 0.000000 0.000000 0.000000 0.000000 -0.000000 0.000000 0.000000 -0.000000 0.000000 0.000000 -0.000000 0.000000 0.000000 -1.031094 0.944621 0.084838 0.000000 0.000000 0.000000 0.000000 0.000000 0.000000 -0.004832 -0.021375 -22.319965 -0.000000 0.000000 0.000000 -0.041977 -0.825045 0.131270 0.000000 0.000000 0.000000 -0.004832 -0.021375 -22.319965 -0.000000 0.000000 0.000000 -0.000000 0.000000 0.000000 0.000000 0.000000 0.000000
38.002357 74.748048 385.230727 -0.007668 0.041523 22.385340 -0.008724 -0.041314 -22.385340 -0.000000 0.000000 0.000000 -0.000000 0.000000 0.000000 0.000000 0.000000 0.000000 -0.000000 0.000000 0.000000 -0.000000 0.000000 0.000000 1.714835 -0.207526 -0.602632 -0.649367 0.490130 0.394727 0.000000 0.000000 0.000000 0.000000 0.000000 0.000000 -0.000000 0.000000 0.000000 -0.000000 0.000000 0.000000 -0.430397 -1.040709 0.365135 -1.586166 2.973735 -0.158483 0.000000 0.000000 0.000000 0.000000 0.000000 0.000000 -0.008724 -0.041314 -22.385340 -0.000000 0.000000 0.000000 -0.102527 -1.444647 0.256488 0.000000 0.000000 0.000000 -0.008724 -0.041314 -22.385340 -0.000000 0.000000 0.000000 -0.000000 0.000000 0.000000 0.000000 0.000000 0.000000
37.997409 74.753374 385.225057 -0.012060 0.059739 22.444441 -0.011661 -0.059818 -22.444441 -0.000000 0.000000 0.000000 -0.000000 0.000000 0.000000 0.000000 0.000000 0.000000 -0.000000 0.000000 0.000000 -0.000000 0.000000 0.000000 2.284737 -0.126118 -0.740765 -0.865931 0.434852 0.454256 0.000000 0.000000 0.000000 0.000000 0.000000 0.000000 -0.000000 0.000000 0.000000 -0.670534 0.428490 0.160922 0.028842 -1.899418 0.354373 -2.328488 4.418469 -0.177326 0.000000 0.000000 0.000000 0.000000 0.000000 0.000000 -0.011661 -0.059818 -22.444441 -0.000000 0.000000 0.000000 -0.182419 -1.867572 0.376670 0.000000 0.000000 0.000000 -0.011661 -0.059818 -22.444441 -0.000000 0.000000 0.000000 -0.000000 0.000000 0.000000 0.000000 0.000000 0.000000
37.994012 74.757621 385.219147 -0.016824 0.076253 22.497274 -0.013633 -0.076888 -22.497272 -0.000000 0.000000 0.000000 0.050115 -0.924349 -0.163565 0.000000 0.000000 0.000000 -0.000000 0.000000 0.000000 -0.000000 0.000000 0.000000 2.578541 0.098843 -0.740460 -0.919664 0.165796 0.390818 0.000000 0.000000 0.000000 0.000000 0.000000 0.000000 -0.000000 0.000000 0.000000 -0.811318 0.555261 0.192058 -0.033678 -2.397945 0.452144 -3.028058 5.824055 -0.163281 0.000000 0.000000 0.000000 0.000000 0.000000 0.000000 -0.013633 -0.076888 -22.497272 -0.000000 0.000000 0.000000 -0.282624 -2.099661 0.492935 0.000000 0.000000 0.000000 -0.013633 -0.076888 -22.497272 -0.000000 0.000000 0.000000 -0.000000 0.000000 0.000000 0.000000 0.000000 0.000000
37.992166 74.760790 385.212996 -0.021960 0.091061 22.543842 -0.014630 -0.092522 -22.543837 -0.000000 0.000000 0.000000 0.041043 -1.069802 -0.187629 0.000000 0.000000 0.000000 0.880624 -0.083990 -0.016257 -0.880649 0.083730 0.017546 2.565332 0.459712 -0.595453 -0.779868 -0.307681 0.199953 0.000000 0.000000 0.000000 0.000000 0.000000 0.000000 -0.000000 0.000000 0.000000 -0.911223 0.674932 0.211751 -0.131935 -2.832472 0.541024 -3.678740 7.182113 -0.122173 0.000000 0.000000 0.000000 0.000000 0.000000 0.000000 -0.014630 -0.092522 -22.543837 -0.000000 0.000000 0.000000 -0.404343 -2.143897 0.606523 0.000000 0.000000 0.000000 -0.014630 -0.092522 -22.543837 -0.000000 0.000000 0.000000 -0.000000 0.000000 0.000000 0.000000 0.000000 0.000000
37.991001 74.764062 385.205013 -0.027043 0.110950 22.589382 -0.017650 -0.112826 -22.589374 -0.000000 0.000000 0.000000 0.035141 -1.206779 -0.210570 0.000000 0.000000 0.000000 0.955776 -0.102505 -0.016668 -0.955807 0.102213 0.018375 1.851421 1.360358 -0.021273 -0.158622 -2.097222 -0.454026 0.000000 0.000000 0.000000 0.000000 0.000000 0.000000 -0.000000 0.000000 0.000000 -0.927457 0.779601 0.207600 -0.280619 -3.051010 0.586676 -4.173556 8.799547 -0.085599 0.000000 0.000000 0.000000 0.000000 0.000000 0.000000 -0.017650 -0.112826 -22.589374 -0.000000 0.000000 0.000000 -0.574943 -1.914465 0.731978 0.000000 0.000000 0.000000 -0.017650 -0.112826 -22.589374 -0.000000 0.000000 0.000000 -0.000000 0.000000 0.000000 0.000000 0.000000 0.000000
37.995477 74.765870 385.199637 -0.029929 0.120254 22.613341 -0.018611 -0.122518 -22.613329 -0.000000 0.000000 0.000000 0.010888 -1.290378 -0.222643 0.000000 0.000000 0.000000 0.973761 -0.129595 -0.014926 -0.973797 0.129323 0.017126 1.546291 2.127597 0.379340 0.074100 -3.174119 -0.872380 0.000000 0.000000 0.000000 0.000000 0.000000 0.000000 -0.000000 0.000000 0.000000 -0.913795 0.907626 0.192387 -0.568822 -3.329244 0.656454 -4.455018 10.370483 -0.071682 0.000000 0.000000 0.000000 0.000000 0.000000 0.000000 -0.018611 -0.122518 -22.613329 -0.000000 0.000000 0.000000 -0.617990 -1.535308 0.726787 0.000000 0.000000 0.000000 -0.018611 -0.122518 -22.613329 -0.000000 0.000000 0.000000 -0.000000 0.000000 0.000000 0.000000 0.000000 0.000000
37.998715 74.766057 385.193158 -0.032537 0.129219 22.638100 -0.019707 -0.131788 -22.638086 -0.000000 0.000000 0.000000 -0.047369 -1.303694 -0.219472 0.000000 0.000000 0.000000 0.963010 -0.161539 -0.012072 -0.963048 0.161313 0.014785 1.017572 1.709368 0.381476 0.253922 -2.533165 -0.765672 0.000000 0.000000 0.000000 0.000000 0.000000 0.000000 -0.000000 0.000000 0.000000 -0.961751 1.048661 0.194809 -0.679086 -4.059376 0.841555 -4.696248 11.744313 -0.140183 0.000000 0.000000 0.000000 0.000000 0.000000 0.000000 -0.019707 -0.131788 -22.638086 -0.000000 0.000000 0.000000 -0.806710 -1.060886 0.841080 0.000000 0.000000 0.000000 -0.019707 -0.131788 -22.638086 -0.000000 0.000000 0.000000 -0.000000 0.000000 0.000000 0.000000 0.000000 0.000000
37.998180 74.763521 385.186561 -0.046973 0.135356 22.662407 -0.008806 -0.143004 -22.662362 -0.000000 0.000000 0.000000 -0.097123 -1.320562 -0.217723 0.000000 0.000000 0.000000 0.905568 -0.193967 -0.008044 -0.905600 0.193816 0.011109 0.711248 1.453627 0.375518 0.655613 -1.488844 -0.677141 0.000000 0.000000 0.000000 0.000000 0.000000 0.000000 -0.000000 0.000000 0.000000 -0.933958 1.141552 0.178325 -0.392313 -4.390668 0.925697 -4.641747 10.756555 -0.207762 0.000000 0.000000 0.000000 0.000000 0.000000 0.000000 -0.008806 -0.143004 -22.662362 -0.000000 0.000000 0.000000 -1.136843 -0.547577 1.077939 0.000000 0.000000 0.000000 -0.008806 -0.143004 -22.662362 -0.000000 0.000000 0.000000 -0.627596 0.818631 0.273477 0.000000 0.000000 0.000000
37.993463 74.762956 385.181994 -0.071318 0.130008 22.688655 0.015652 -0.147456 -22.688553 -0.000000 0.000000 0.000000 -0.164392 -1.272611 -0.203110 0.000000 0.000000 0.000000 0.822582 -0.200819 -0.005471 -1.604382 0.513548 0.322032 1.548503 1.501423 0.207293 0.776342 -1.773549 -0.832866 0.000000 0.000000 0.000000 0.000000 0.000000 0.000000 -0.000000 0.000000 0.000000 -0.943464 1.167417 0.179001 -0.638547 -4.826623 1.057604 -4.606075 11.469966 -0.271586 0.000000 0.000000 0.000000 0.000000 0.000000 0.000000 0.015652 -0.147456 -22.688553 -0.000000 0.000000 0.000000 -1.568966 -0.019202 1.405117 0.000000 0.000000 0.000000 0.627234 0.460333 -22.511148 -0.332318 -0.795617 -0.181383 -0.789121 1.095007 0.334060 0.000000 0.000000 0.000000
37.990491 74.762805 385.173071 -0.105975 0.119323 22.736745 0.051622 -0.151009 -22.736567 -0.000000 0.000000 0.000000 -0.180712 -1.217800 -0.192063 0.000000 0.000000 0.000000 -0.000000 0.000000 0.000000 -0.908248 0.428387 0.363687 1.557021 1.655824 0.306132 0.805955 -2.115046 -0.965453 0.000000 0.000000 0.000000 0.000000 0.000000 0.000000 -0.928594 0.234493 0.176312 0.050813 0.863418 -0.010396 -1.232798 -5.032304 1.162374 -3.716379 11.386639 -0.472640 0.000000 0.000000 0.000000 0.000000 0.000000 0.000000 0.051622 -0.151009 -22.736567 -0.000000 0.000000 0.000000 -1.838946 0.300485 1.611183 0.000000 0.000000 0.000000 0.700553 0.467595 -22.556558 -0.362036 -0.820192 -0.184393 -0.814268 1.230935 0.328365 0.000000 0.000000 0.000000
